<?xml version="1.0" encoding="UTF-8" standalone="no"?>
<svg
   xmlns="http://www.w3.org/2000/svg"
   width="25"
   height="41"
   viewBox="0 0 25 41">
  <path
     d="M 12.5,0 C 5.596,0 0,5.596 0,12.5 0,19.404 12.5,41 12.5,41 12.5,41 25,19.404 25,12.5 25,5.596 19.404,0 12.5,0 Z"
     fill="#0066cc"
     stroke="#ffffff"
     stroke-width="2" />
  <circle
     cx="12.5"
     cy="12.5"
     r="6"
     fill="#ffffff" />
  <path
     d="M 12.5,8 A 1,1 0 0 1 13.5,9 L 13.5,12.5 16,12.5 A 1,1 0 0 1 17,13.5 1,1 0 0 1 16,14.5 L 11.5,14.5 A 1,1 0 0 1 10.5,13.5 L 10.5,9 A 1,1 0 0 1 11.5,8 Z"
     fill="#0066cc" />
</svg> 